<svg xmlns="http://www.w3.org/2000/svg" width="137" height="25">
    <g fill="#5f6368" fill-rule="nonzero">
        <path d="M134.095 2.955V8.08l.09 1.543h-.09a3.856 3.856 0 0 0-1.508-1.361 4.724 4.724 0 0 0-2.28-.544c-1.436 0-2.675.567-3.718 1.7-1.044 1.134-1.565 2.54-1.565 4.219 0 1.678.521 3.084 1.565 4.218 1.043 1.134 2.283 1.7 3.719 1.7a4.724 4.724 0 0 0 2.279-.544 3.855 3.855 0 0 0 1.508-1.36h.09v1.542h1.996V2.955h-2.086zm-.941 13.607a3.404 3.404 0 0 1-5-.011c-.696-.733-1.044-1.705-1.044-2.914 0-1.21.348-2.181 1.043-2.915a3.404 3.404 0 0 1 5-.011c.689.726 1.033 1.701 1.033 2.926 0 1.224-.344 2.2-1.032 2.925zM123.232 19.193h-1.995V17.65h-.091a3.874 3.874 0 0 1-1.451 1.35 4.106 4.106 0 0 1-2.064.556c-1.391 0-2.446-.424-3.164-1.27-.718-.847-1.077-1.98-1.077-3.402V8.08h2.087v6.464c0 2.071.914 3.107 2.744 3.106a2.557 2.557 0 0 0 2.109-1.043c.54-.683.828-1.532.816-2.403V8.08h2.086v11.113zM110.08 9.407c-1.075-1.126-2.443-1.69-4.106-1.69-1.663 0-3.031.564-4.104 1.69-1.074 1.127-1.61 2.537-1.61 4.23 0 1.693.536 3.103 1.61 4.229 1.073 1.126 2.441 1.69 4.104 1.69 1.663 0 3.032-.564 4.105-1.69 1.073-1.126 1.61-2.536 1.61-4.23 0-1.692-.536-3.102-1.61-4.229zm-1.554 7.144a3.51 3.51 0 0 1-5.103 0c-.718-.733-1.077-1.705-1.077-2.914 0-1.21.36-2.181 1.077-2.915a3.51 3.51 0 0 1 5.103 0c.718.734 1.077 1.705 1.077 2.915s-.36 2.18-1.077 2.914zM98.468 19.193h-2.086V2.955h2.086zM88.082 19.556c-2.389 0-4.392-.81-6.01-2.427-1.618-1.617-2.426-3.636-2.426-6.055 0-2.419.809-4.437 2.426-6.055 1.618-1.618 3.621-2.426 6.01-2.427 2.45 0 4.437.885 5.964 2.654l-1.451 1.406c-1.104-1.376-2.608-2.063-4.513-2.064a6.15 6.15 0 0 0-4.479 1.792c-1.217 1.194-1.826 2.759-1.825 4.694 0 1.936.608 3.5 1.825 4.694a6.15 6.15 0 0 0 4.479 1.792c1.95 0 3.613-.786 4.989-2.359l1.451 1.452a7.91 7.91 0 0 1-2.789 2.12 8.534 8.534 0 0 1-3.651.783zM69.169 17.197c-1.315 0-2.283-.605-2.903-1.814l8.005-3.31-.272-.681a7.2 7.2 0 0 0-.59-1.18A7.024 7.024 0 0 0 72.435 9a4.738 4.738 0 0 0-1.542-1.02 5.086 5.086 0 0 0-2.018-.397A5.392 5.392 0 0 0 64.87 9.26c-1.096 1.119-1.644 2.555-1.644 4.308a5.83 5.83 0 0 0 1.701 4.264 5.715 5.715 0 0 0 4.24 1.724 5.472 5.472 0 0 0 3.062-.817 6.634 6.634 0 0 0 1.928-1.837l-2.041-1.36c-.756 1.103-1.739 1.655-2.948 1.655zm-2.37-6.35c.673-.635 1.394-.952 2.166-.952.484-.008.961.114 1.383.351.377.2.674.525.84.919l-5.353 2.222c-.03-1.058.291-1.905.964-2.54zM59.327 1.595h2.631v17.598h-2.631zM55.018 8.92h-.09a3.725 3.725 0 0 0-1.305-.953 4.329 4.329 0 0 0-1.848-.385c-1.527 0-2.865.585-4.014 1.757a5.85 5.85 0 0 0-1.723 4.252 5.784 5.784 0 0 0 1.723 4.218c1.149 1.165 2.487 1.747 4.014 1.747 1.36 0 2.412-.454 3.152-1.361h.09v.861c0 1.135-.283 2.004-.85 2.608-.566.605-1.349.907-2.347.908a2.865 2.865 0 0 1-1.882-.635 3.866 3.866 0 0 1-1.134-1.497l-2.29.952a6.173 6.173 0 0 0 1.95 2.472c.907.71 2.026 1.066 3.356 1.066 1.663 0 3.028-.518 4.094-1.553 1.066-1.036 1.598-2.597 1.598-4.683V7.944h-2.494v.976zm-.737 7.245a2.927 2.927 0 0 1-2.28 1.032 3.124 3.124 0 0 1-2.358-1.032 3.6 3.6 0 0 1-.975-2.574c-.03-.963.32-1.9.975-2.608a3.111 3.111 0 0 1 2.359-1.043 2.916 2.916 0 0 1 2.279 1.043c.622.724.95 1.655.918 2.608a3.729 3.729 0 0 1-.918 2.574zM38.94 7.582a5.86 5.86 0 0 0-4.264 1.712 6.106 6.106 0 0 0 0 8.55 6.164 6.164 0 0 0 8.527 0 6.105 6.105 0 0 0 0-8.55 5.86 5.86 0 0 0-4.264-1.712zm2.38 8.583a3.263 3.263 0 0 1-4.762 0 3.909 3.909 0 0 1-.011-5.204 3.315 3.315 0 0 1 4.785 0 3.909 3.909 0 0 1-.011 5.204z"/>
        <path d="M25.832 7.582a5.86 5.86 0 0 0-4.264 1.712 6.106 6.106 0 0 0 0 8.55 6.164 6.164 0 0 0 8.527 0 6.106 6.106 0 0 0 0-8.55 5.86 5.86 0 0 0-4.263-1.712zm2.38 8.583a3.263 3.263 0 0 1-4.761 0 3.909 3.909 0 0 1-.012-5.204 3.315 3.315 0 0 1 4.785 0 3.908 3.908 0 0 1-.011 5.204zM10.23 9.419v2.54h6.077c-.181 1.39-.642 2.456-1.383 3.197-1.24 1.24-2.805 1.86-4.695 1.86a6.378 6.378 0 0 1-4.728-1.973 6.874 6.874 0 0 1 0-9.57A6.377 6.377 0 0 1 10.23 3.5a6.456 6.456 0 0 1 4.581 1.814l1.792-1.792A8.897 8.897 0 0 0 10.23.96a9.168 9.168 0 0 0-6.644 2.732 9.12 9.12 0 0 0 0 13.13 9.167 9.167 0 0 0 6.644 2.734c2.661 0 4.823-.87 6.486-2.609 1.467-1.466 2.2-3.446 2.2-5.94a8.172 8.172 0 0 0-.136-1.588h-8.55z"/>
    </g>
</svg>
