<svg xmlns="http://www.w3.org/2000/svg" xmlns:xlink="http://www.w3.org/1999/xlink" viewBox="0 0 192 192">
    <defs>
        <path id="a" d="M52 20L8 96l44 76h88l44-76-44-76z"/>
    </defs>
    <clipPath id="b">
        <use overflow="visible" xlink:href="#a"/>
    </clipPath>
    <path fill="#39B54A" d="M52 20L8 96l44 76h88l44-76-44-76" clip-path="url(#b)"/>
    <path fill="#1B5E20" d="M8 96l44 76 44-76" clip-path="url(#b)"/>
    <linearGradient id="c" x1="-207.056" x2="-207.237" y1="488.627" y2="488.996" gradientTransform="matrix(155.7668 0 0 -76 32354.252 37265)" gradientUnits="userSpaceOnUse">
        <stop offset="0" stop-color="#263238" stop-opacity=".02"/>
        <stop offset="1" stop-color="#263238" stop-opacity=".2"/>
    </linearGradient>
    <path fill="url(#c)" d="M96 96l67.77 35.01L83.96 172 8 96" clip-path="url(#b)"/>
    <g clip-path="url(#b)">
        <path fill="#43A047" d="M52 20L8 96h88l44-76"/>
    </g>
    <path fill="#8BC34A" d="M140 20L96 96l44 76 44-76" clip-path="url(#b)"/>
    <path fill="#2E7D32" d="M52 172h88L96 96" clip-path="url(#b)"/>
    <path fill="#FFF" fill-opacity=".2" d="M96 96l-44 76h1.15l43.42-75L140 21.99 182.84 96H184l-44-76H52L8 96h1.16l43.41-75h86.85-.01L96 96z" clip-path="url(#b)"/>
    <path fill="#263238" fill-opacity=".2" d="M139.42 171.01L182.84 96H184l-44 76 .01.01H52l.58-1h86.84zM9.16 96l43.41 75.01-.57.99L8 96h1.16zM96.42 95.27l43-74.27h-1.16L95.43 95H8.58L8 96h88l.42-.73z" clip-path="url(#b)"/>
    <radialGradient id="d" cx="54.153" cy="25.058" r="170.575" fx="54.157" fy="20.459" gradientUnits="userSpaceOnUse">
        <stop offset="0" stop-color="#FFF" stop-opacity=".1"/>
        <stop offset="1" stop-color="#FFF" stop-opacity="0"/>
    </radialGradient>
    <path fill="url(#d)" d="M52 20L8 96l44 76h88l44-76-44-76" clip-path="url(#b)"/>
</svg>
